<?xml version="1.0" encoding="utf-8" standalone="no"?>
<!DOCTYPE svg PUBLIC "-//W3C//DTD SVG 1.1//EN"
  "http://www.w3.org/Graphics/SVG/1.1/DTD/svg11.dtd">
<svg xmlns:xlink="http://www.w3.org/1999/xlink" width="504pt" height="216pt" viewBox="0 0 504 216" xmlns="http://www.w3.org/2000/svg" version="1.1">
 <metadata>
  <rdf:RDF xmlns:dc="http://purl.org/dc/elements/1.1/" xmlns:cc="http://creativecommons.org/ns#" xmlns:rdf="http://www.w3.org/1999/02/22-rdf-syntax-ns#">
   <cc:Work>
    <dc:type rdf:resource="http://purl.org/dc/dcmitype/StillImage"/>
    <dc:date>2025-10-19T00:50:49.421118</dc:date>
    <dc:format>image/svg+xml</dc:format>
    <dc:creator>
     <cc:Agent>
      <dc:title>Matplotlib v3.9.4, https://matplotlib.org/</dc:title>
     </cc:Agent>
    </dc:creator>
   </cc:Work>
  </rdf:RDF>
 </metadata>
 <defs>
  <style type="text/css">*{stroke-linejoin: round; stroke-linecap: butt}</style>
 </defs>
 <g id="figure_1">
  <g id="patch_1">
   <path d="M 0 216 
L 504 216 
L 504 0 
L 0 0 
z
" style="fill: #ffffff"/>
  </g>
  <g id="axes_1">
   <g id="patch_2">
    <path d="M 63 192.24 
L 453.6 192.24 
L 453.6 25.92 
L 63 25.92 
z
" style="fill: #ffffff"/>
   </g>
   <g id="matplotlib.axis_1">
    <g id="xtick_1">
     <g id="line2d_1">
      <path d="M 80.172624 192.24 
L 80.172624 25.92 
" clip-path="url(#pf9b5200963)" style="fill: none; stroke: #cccccc; stroke-linecap: round"/>
     </g>
     <g id="text_1">
      <!-- 0 -->
      <g style="fill: #262626" transform="translate(76.673249 210.098281) scale(0.11 -0.11)">
       <defs>
        <path id="DejaVuSans-30" d="M 2034 4250 
Q 1547 4250 1301 3770 
Q 1056 3291 1056 2328 
Q 1056 1369 1301 889 
Q 1547 409 2034 409 
Q 2525 409 2770 889 
Q 3016 1369 3016 2328 
Q 3016 3291 2770 3770 
Q 2525 4250 2034 4250 
z
M 2034 4750 
Q 2819 4750 3233 4129 
Q 3647 3509 3647 2328 
Q 3647 1150 3233 529 
Q 2819 -91 2034 -91 
Q 1250 -91 836 529 
Q 422 1150 422 2328 
Q 422 3509 836 4129 
Q 1250 4750 2034 4750 
z
" transform="scale(0.015625)"/>
       </defs>
       <use xlink:href="#DejaVuSans-30"/>
      </g>
     </g>
    </g>
    <g id="xtick_2">
     <g id="line2d_2">
      <path d="M 127.676424 192.24 
L 127.676424 25.92 
" clip-path="url(#pf9b5200963)" style="fill: none; stroke: #cccccc; stroke-linecap: round"/>
     </g>
     <g id="text_2">
      <!-- 2000 -->
      <g style="fill: #262626" transform="translate(113.678924 210.098281) scale(0.11 -0.11)">
       <defs>
        <path id="DejaVuSans-32" d="M 1228 531 
L 3431 531 
L 3431 0 
L 469 0 
L 469 531 
Q 828 903 1448 1529 
Q 2069 2156 2228 2338 
Q 2531 2678 2651 2914 
Q 2772 3150 2772 3378 
Q 2772 3750 2511 3984 
Q 2250 4219 1831 4219 
Q 1534 4219 1204 4116 
Q 875 4013 500 3803 
L 500 4441 
Q 881 4594 1212 4672 
Q 1544 4750 1819 4750 
Q 2544 4750 2975 4387 
Q 3406 4025 3406 3419 
Q 3406 3131 3298 2873 
Q 3191 2616 2906 2266 
Q 2828 2175 2409 1742 
Q 1991 1309 1228 531 
z
" transform="scale(0.015625)"/>
       </defs>
       <use xlink:href="#DejaVuSans-32"/>
       <use xlink:href="#DejaVuSans-30" x="63.623047"/>
       <use xlink:href="#DejaVuSans-30" x="127.246094"/>
       <use xlink:href="#DejaVuSans-30" x="190.869141"/>
      </g>
     </g>
    </g>
    <g id="xtick_3">
     <g id="line2d_3">
      <path d="M 175.180225 192.24 
L 175.180225 25.92 
" clip-path="url(#pf9b5200963)" style="fill: none; stroke: #cccccc; stroke-linecap: round"/>
     </g>
     <g id="text_3">
      <!-- 4000 -->
      <g style="fill: #262626" transform="translate(161.182725 210.098281) scale(0.11 -0.11)">
       <defs>
        <path id="DejaVuSans-34" d="M 2419 4116 
L 825 1625 
L 2419 1625 
L 2419 4116 
z
M 2253 4666 
L 3047 4666 
L 3047 1625 
L 3713 1625 
L 3713 1100 
L 3047 1100 
L 3047 0 
L 2419 0 
L 2419 1100 
L 313 1100 
L 313 1709 
L 2253 4666 
z
" transform="scale(0.015625)"/>
       </defs>
       <use xlink:href="#DejaVuSans-34"/>
       <use xlink:href="#DejaVuSans-30" x="63.623047"/>
       <use xlink:href="#DejaVuSans-30" x="127.246094"/>
       <use xlink:href="#DejaVuSans-30" x="190.869141"/>
      </g>
     </g>
    </g>
    <g id="xtick_4">
     <g id="line2d_4">
      <path d="M 222.684026 192.24 
L 222.684026 25.92 
" clip-path="url(#pf9b5200963)" style="fill: none; stroke: #cccccc; stroke-linecap: round"/>
     </g>
     <g id="text_4">
      <!-- 6000 -->
      <g style="fill: #262626" transform="translate(208.686526 210.098281) scale(0.11 -0.11)">
       <defs>
        <path id="DejaVuSans-36" d="M 2113 2584 
Q 1688 2584 1439 2293 
Q 1191 2003 1191 1497 
Q 1191 994 1439 701 
Q 1688 409 2113 409 
Q 2538 409 2786 701 
Q 3034 994 3034 1497 
Q 3034 2003 2786 2293 
Q 2538 2584 2113 2584 
z
M 3366 4563 
L 3366 3988 
Q 3128 4100 2886 4159 
Q 2644 4219 2406 4219 
Q 1781 4219 1451 3797 
Q 1122 3375 1075 2522 
Q 1259 2794 1537 2939 
Q 1816 3084 2150 3084 
Q 2853 3084 3261 2657 
Q 3669 2231 3669 1497 
Q 3669 778 3244 343 
Q 2819 -91 2113 -91 
Q 1303 -91 875 529 
Q 447 1150 447 2328 
Q 447 3434 972 4092 
Q 1497 4750 2381 4750 
Q 2619 4750 2861 4703 
Q 3103 4656 3366 4563 
z
" transform="scale(0.015625)"/>
       </defs>
       <use xlink:href="#DejaVuSans-36"/>
       <use xlink:href="#DejaVuSans-30" x="63.623047"/>
       <use xlink:href="#DejaVuSans-30" x="127.246094"/>
       <use xlink:href="#DejaVuSans-30" x="190.869141"/>
      </g>
     </g>
    </g>
    <g id="xtick_5">
     <g id="line2d_5">
      <path d="M 270.187826 192.24 
L 270.187826 25.92 
" clip-path="url(#pf9b5200963)" style="fill: none; stroke: #cccccc; stroke-linecap: round"/>
     </g>
     <g id="text_5">
      <!-- 8000 -->
      <g style="fill: #262626" transform="translate(256.190326 210.098281) scale(0.11 -0.11)">
       <defs>
        <path id="DejaVuSans-38" d="M 2034 2216 
Q 1584 2216 1326 1975 
Q 1069 1734 1069 1313 
Q 1069 891 1326 650 
Q 1584 409 2034 409 
Q 2484 409 2743 651 
Q 3003 894 3003 1313 
Q 3003 1734 2745 1975 
Q 2488 2216 2034 2216 
z
M 1403 2484 
Q 997 2584 770 2862 
Q 544 3141 544 3541 
Q 544 4100 942 4425 
Q 1341 4750 2034 4750 
Q 2731 4750 3128 4425 
Q 3525 4100 3525 3541 
Q 3525 3141 3298 2862 
Q 3072 2584 2669 2484 
Q 3125 2378 3379 2068 
Q 3634 1759 3634 1313 
Q 3634 634 3220 271 
Q 2806 -91 2034 -91 
Q 1263 -91 848 271 
Q 434 634 434 1313 
Q 434 1759 690 2068 
Q 947 2378 1403 2484 
z
M 1172 3481 
Q 1172 3119 1398 2916 
Q 1625 2713 2034 2713 
Q 2441 2713 2670 2916 
Q 2900 3119 2900 3481 
Q 2900 3844 2670 4047 
Q 2441 4250 2034 4250 
Q 1625 4250 1398 4047 
Q 1172 3844 1172 3481 
z
" transform="scale(0.015625)"/>
       </defs>
       <use xlink:href="#DejaVuSans-38"/>
       <use xlink:href="#DejaVuSans-30" x="63.623047"/>
       <use xlink:href="#DejaVuSans-30" x="127.246094"/>
       <use xlink:href="#DejaVuSans-30" x="190.869141"/>
      </g>
     </g>
    </g>
    <g id="xtick_6">
     <g id="line2d_6">
      <path d="M 317.691627 192.24 
L 317.691627 25.92 
" clip-path="url(#pf9b5200963)" style="fill: none; stroke: #cccccc; stroke-linecap: round"/>
     </g>
     <g id="text_6">
      <!-- 10000 -->
      <g style="fill: #262626" transform="translate(300.194752 210.098281) scale(0.11 -0.11)">
       <defs>
        <path id="DejaVuSans-31" d="M 794 531 
L 1825 531 
L 1825 4091 
L 703 3866 
L 703 4441 
L 1819 4666 
L 2450 4666 
L 2450 531 
L 3481 531 
L 3481 0 
L 794 0 
L 794 531 
z
" transform="scale(0.015625)"/>
       </defs>
       <use xlink:href="#DejaVuSans-31"/>
       <use xlink:href="#DejaVuSans-30" x="63.623047"/>
       <use xlink:href="#DejaVuSans-30" x="127.246094"/>
       <use xlink:href="#DejaVuSans-30" x="190.869141"/>
       <use xlink:href="#DejaVuSans-30" x="254.492188"/>
      </g>
     </g>
    </g>
    <g id="xtick_7">
     <g id="line2d_7">
      <path d="M 365.195427 192.24 
L 365.195427 25.92 
" clip-path="url(#pf9b5200963)" style="fill: none; stroke: #cccccc; stroke-linecap: round"/>
     </g>
     <g id="text_7">
      <!-- 12000 -->
      <g style="fill: #262626" transform="translate(347.698552 210.098281) scale(0.11 -0.11)">
       <use xlink:href="#DejaVuSans-31"/>
       <use xlink:href="#DejaVuSans-32" x="63.623047"/>
       <use xlink:href="#DejaVuSans-30" x="127.246094"/>
       <use xlink:href="#DejaVuSans-30" x="190.869141"/>
       <use xlink:href="#DejaVuSans-30" x="254.492188"/>
      </g>
     </g>
    </g>
    <g id="xtick_8">
     <g id="line2d_8">
      <path d="M 412.699228 192.24 
L 412.699228 25.92 
" clip-path="url(#pf9b5200963)" style="fill: none; stroke: #cccccc; stroke-linecap: round"/>
     </g>
     <g id="text_8">
      <!-- 14000 -->
      <g style="fill: #262626" transform="translate(395.202353 210.098281) scale(0.11 -0.11)">
       <use xlink:href="#DejaVuSans-31"/>
       <use xlink:href="#DejaVuSans-34" x="63.623047"/>
       <use xlink:href="#DejaVuSans-30" x="127.246094"/>
       <use xlink:href="#DejaVuSans-30" x="190.869141"/>
       <use xlink:href="#DejaVuSans-30" x="254.492188"/>
      </g>
     </g>
    </g>
    <g id="text_9">
     <!-- Episodio -->
     <g style="fill: #262626" transform="translate(233.08875 225.504063) scale(0.12 -0.12)">
      <defs>
       <path id="DejaVuSans-45" d="M 628 4666 
L 3578 4666 
L 3578 4134 
L 1259 4134 
L 1259 2753 
L 3481 2753 
L 3481 2222 
L 1259 2222 
L 1259 531 
L 3634 531 
L 3634 0 
L 628 0 
L 628 4666 
z
" transform="scale(0.015625)"/>
       <path id="DejaVuSans-70" d="M 1159 525 
L 1159 -1331 
L 581 -1331 
L 581 3500 
L 1159 3500 
L 1159 2969 
Q 1341 3281 1617 3432 
Q 1894 3584 2278 3584 
Q 2916 3584 3314 3078 
Q 3713 2572 3713 1747 
Q 3713 922 3314 415 
Q 2916 -91 2278 -91 
Q 1894 -91 1617 61 
Q 1341 213 1159 525 
z
M 3116 1747 
Q 3116 2381 2855 2742 
Q 2594 3103 2138 3103 
Q 1681 3103 1420 2742 
Q 1159 2381 1159 1747 
Q 1159 1113 1420 752 
Q 1681 391 2138 391 
Q 2594 391 2855 752 
Q 3116 1113 3116 1747 
z
" transform="scale(0.015625)"/>
       <path id="DejaVuSans-69" d="M 603 3500 
L 1178 3500 
L 1178 0 
L 603 0 
L 603 3500 
z
M 603 4863 
L 1178 4863 
L 1178 4134 
L 603 4134 
L 603 4863 
z
" transform="scale(0.015625)"/>
       <path id="DejaVuSans-73" d="M 2834 3397 
L 2834 2853 
Q 2591 2978 2328 3040 
Q 2066 3103 1784 3103 
Q 1356 3103 1142 2972 
Q 928 2841 928 2578 
Q 928 2378 1081 2264 
Q 1234 2150 1697 2047 
L 1894 2003 
Q 2506 1872 2764 1633 
Q 3022 1394 3022 966 
Q 3022 478 2636 193 
Q 2250 -91 1575 -91 
Q 1294 -91 989 -36 
Q 684 19 347 128 
L 347 722 
Q 666 556 975 473 
Q 1284 391 1588 391 
Q 1994 391 2212 530 
Q 2431 669 2431 922 
Q 2431 1156 2273 1281 
Q 2116 1406 1581 1522 
L 1381 1569 
Q 847 1681 609 1914 
Q 372 2147 372 2553 
Q 372 3047 722 3315 
Q 1072 3584 1716 3584 
Q 2034 3584 2315 3537 
Q 2597 3491 2834 3397 
z
" transform="scale(0.015625)"/>
       <path id="DejaVuSans-6f" d="M 1959 3097 
Q 1497 3097 1228 2736 
Q 959 2375 959 1747 
Q 959 1119 1226 758 
Q 1494 397 1959 397 
Q 2419 397 2687 759 
Q 2956 1122 2956 1747 
Q 2956 2369 2687 2733 
Q 2419 3097 1959 3097 
z
M 1959 3584 
Q 2709 3584 3137 3096 
Q 3566 2609 3566 1747 
Q 3566 888 3137 398 
Q 2709 -91 1959 -91 
Q 1206 -91 779 398 
Q 353 888 353 1747 
Q 353 2609 779 3096 
Q 1206 3584 1959 3584 
z
" transform="scale(0.015625)"/>
       <path id="DejaVuSans-64" d="M 2906 2969 
L 2906 4863 
L 3481 4863 
L 3481 0 
L 2906 0 
L 2906 525 
Q 2725 213 2448 61 
Q 2172 -91 1784 -91 
Q 1150 -91 751 415 
Q 353 922 353 1747 
Q 353 2572 751 3078 
Q 1150 3584 1784 3584 
Q 2172 3584 2448 3432 
Q 2725 3281 2906 2969 
z
M 947 1747 
Q 947 1113 1208 752 
Q 1469 391 1925 391 
Q 2381 391 2643 752 
Q 2906 1113 2906 1747 
Q 2906 2381 2643 2742 
Q 2381 3103 1925 3103 
Q 1469 3103 1208 2742 
Q 947 2381 947 1747 
z
" transform="scale(0.015625)"/>
      </defs>
      <use xlink:href="#DejaVuSans-45"/>
      <use xlink:href="#DejaVuSans-70" x="63.183594"/>
      <use xlink:href="#DejaVuSans-69" x="126.660156"/>
      <use xlink:href="#DejaVuSans-73" x="154.443359"/>
      <use xlink:href="#DejaVuSans-6f" x="206.542969"/>
      <use xlink:href="#DejaVuSans-64" x="267.724609"/>
      <use xlink:href="#DejaVuSans-69" x="331.201172"/>
      <use xlink:href="#DejaVuSans-6f" x="358.984375"/>
     </g>
    </g>
   </g>
   <g id="matplotlib.axis_2">
    <g id="ytick_1">
     <g id="line2d_9">
      <path d="M 63 179.504792 
L 453.6 179.504792 
" clip-path="url(#pf9b5200963)" style="fill: none; stroke: #cccccc; stroke-linecap: round"/>
     </g>
     <g id="text_10">
      <!-- −40 -->
      <g style="fill: #262626" transform="translate(30.284844 183.683932) scale(0.11 -0.11)">
       <defs>
        <path id="DejaVuSans-2212" d="M 678 2272 
L 4684 2272 
L 4684 1741 
L 678 1741 
L 678 2272 
z
" transform="scale(0.015625)"/>
       </defs>
       <use xlink:href="#DejaVuSans-2212"/>
       <use xlink:href="#DejaVuSans-34" x="83.789062"/>
       <use xlink:href="#DejaVuSans-30" x="147.412109"/>
      </g>
     </g>
    </g>
    <g id="ytick_2">
     <g id="line2d_10">
      <path d="M 63 144.537169 
L 453.6 144.537169 
" clip-path="url(#pf9b5200963)" style="fill: none; stroke: #cccccc; stroke-linecap: round"/>
     </g>
     <g id="text_11">
      <!-- −30 -->
      <g style="fill: #262626" transform="translate(30.284844 148.71631) scale(0.11 -0.11)">
       <defs>
        <path id="DejaVuSans-33" d="M 2597 2516 
Q 3050 2419 3304 2112 
Q 3559 1806 3559 1356 
Q 3559 666 3084 287 
Q 2609 -91 1734 -91 
Q 1441 -91 1130 -33 
Q 819 25 488 141 
L 488 750 
Q 750 597 1062 519 
Q 1375 441 1716 441 
Q 2309 441 2620 675 
Q 2931 909 2931 1356 
Q 2931 1769 2642 2001 
Q 2353 2234 1838 2234 
L 1294 2234 
L 1294 2753 
L 1863 2753 
Q 2328 2753 2575 2939 
Q 2822 3125 2822 3475 
Q 2822 3834 2567 4026 
Q 2313 4219 1838 4219 
Q 1578 4219 1281 4162 
Q 984 4106 628 3988 
L 628 4550 
Q 988 4650 1302 4700 
Q 1616 4750 1894 4750 
Q 2613 4750 3031 4423 
Q 3450 4097 3450 3541 
Q 3450 3153 3228 2886 
Q 3006 2619 2597 2516 
z
" transform="scale(0.015625)"/>
       </defs>
       <use xlink:href="#DejaVuSans-2212"/>
       <use xlink:href="#DejaVuSans-33" x="83.789062"/>
       <use xlink:href="#DejaVuSans-30" x="147.412109"/>
      </g>
     </g>
    </g>
    <g id="ytick_3">
     <g id="line2d_11">
      <path d="M 63 109.569547 
L 453.6 109.569547 
" clip-path="url(#pf9b5200963)" style="fill: none; stroke: #cccccc; stroke-linecap: round"/>
     </g>
     <g id="text_12">
      <!-- −20 -->
      <g style="fill: #262626" transform="translate(30.284844 113.748687) scale(0.11 -0.11)">
       <use xlink:href="#DejaVuSans-2212"/>
       <use xlink:href="#DejaVuSans-32" x="83.789062"/>
       <use xlink:href="#DejaVuSans-30" x="147.412109"/>
      </g>
     </g>
    </g>
    <g id="ytick_4">
     <g id="line2d_12">
      <path d="M 63 74.601924 
L 453.6 74.601924 
" clip-path="url(#pf9b5200963)" style="fill: none; stroke: #cccccc; stroke-linecap: round"/>
     </g>
     <g id="text_13">
      <!-- −10 -->
      <g style="fill: #262626" transform="translate(30.284844 78.781065) scale(0.11 -0.11)">
       <use xlink:href="#DejaVuSans-2212"/>
       <use xlink:href="#DejaVuSans-31" x="83.789062"/>
       <use xlink:href="#DejaVuSans-30" x="147.412109"/>
      </g>
     </g>
    </g>
    <g id="ytick_5">
     <g id="line2d_13">
      <path d="M 63 39.634302 
L 453.6 39.634302 
" clip-path="url(#pf9b5200963)" style="fill: none; stroke: #cccccc; stroke-linecap: round"/>
     </g>
     <g id="text_14">
      <!-- 0 -->
      <g style="fill: #262626" transform="translate(46.50125 43.813442) scale(0.11 -0.11)">
       <use xlink:href="#DejaVuSans-30"/>
      </g>
     </g>
    </g>
    <g id="text_15">
     <!-- Reward -->
     <g style="fill: #262626" transform="translate(23.789219 131.425312) rotate(-90) scale(0.12 -0.12)">
      <defs>
       <path id="DejaVuSans-52" d="M 2841 2188 
Q 3044 2119 3236 1894 
Q 3428 1669 3622 1275 
L 4263 0 
L 3584 0 
L 2988 1197 
Q 2756 1666 2539 1819 
Q 2322 1972 1947 1972 
L 1259 1972 
L 1259 0 
L 628 0 
L 628 4666 
L 2053 4666 
Q 2853 4666 3247 4331 
Q 3641 3997 3641 3322 
Q 3641 2881 3436 2590 
Q 3231 2300 2841 2188 
z
M 1259 4147 
L 1259 2491 
L 2053 2491 
Q 2509 2491 2742 2702 
Q 2975 2913 2975 3322 
Q 2975 3731 2742 3939 
Q 2509 4147 2053 4147 
L 1259 4147 
z
" transform="scale(0.015625)"/>
       <path id="DejaVuSans-65" d="M 3597 1894 
L 3597 1613 
L 953 1613 
Q 991 1019 1311 708 
Q 1631 397 2203 397 
Q 2534 397 2845 478 
Q 3156 559 3463 722 
L 3463 178 
Q 3153 47 2828 -22 
Q 2503 -91 2169 -91 
Q 1331 -91 842 396 
Q 353 884 353 1716 
Q 353 2575 817 3079 
Q 1281 3584 2069 3584 
Q 2775 3584 3186 3129 
Q 3597 2675 3597 1894 
z
M 3022 2063 
Q 3016 2534 2758 2815 
Q 2500 3097 2075 3097 
Q 1594 3097 1305 2825 
Q 1016 2553 972 2059 
L 3022 2063 
z
" transform="scale(0.015625)"/>
       <path id="DejaVuSans-77" d="M 269 3500 
L 844 3500 
L 1563 769 
L 2278 3500 
L 2956 3500 
L 3675 769 
L 4391 3500 
L 4966 3500 
L 4050 0 
L 3372 0 
L 2619 2869 
L 1863 0 
L 1184 0 
L 269 3500 
z
" transform="scale(0.015625)"/>
       <path id="DejaVuSans-61" d="M 2194 1759 
Q 1497 1759 1228 1600 
Q 959 1441 959 1056 
Q 959 750 1161 570 
Q 1363 391 1709 391 
Q 2188 391 2477 730 
Q 2766 1069 2766 1631 
L 2766 1759 
L 2194 1759 
z
M 3341 1997 
L 3341 0 
L 2766 0 
L 2766 531 
Q 2569 213 2275 61 
Q 1981 -91 1556 -91 
Q 1019 -91 701 211 
Q 384 513 384 1019 
Q 384 1609 779 1909 
Q 1175 2209 1959 2209 
L 2766 2209 
L 2766 2266 
Q 2766 2663 2505 2880 
Q 2244 3097 1772 3097 
Q 1472 3097 1187 3025 
Q 903 2953 641 2809 
L 641 3341 
Q 956 3463 1253 3523 
Q 1550 3584 1831 3584 
Q 2591 3584 2966 3190 
Q 3341 2797 3341 1997 
z
" transform="scale(0.015625)"/>
       <path id="DejaVuSans-72" d="M 2631 2963 
Q 2534 3019 2420 3045 
Q 2306 3072 2169 3072 
Q 1681 3072 1420 2755 
Q 1159 2438 1159 1844 
L 1159 0 
L 581 0 
L 581 3500 
L 1159 3500 
L 1159 2956 
Q 1341 3275 1631 3429 
Q 1922 3584 2338 3584 
Q 2397 3584 2469 3576 
Q 2541 3569 2628 3553 
L 2631 2963 
z
" transform="scale(0.015625)"/>
      </defs>
      <use xlink:href="#DejaVuSans-52"/>
      <use xlink:href="#DejaVuSans-65" x="64.982422"/>
      <use xlink:href="#DejaVuSans-77" x="126.505859"/>
      <use xlink:href="#DejaVuSans-61" x="208.292969"/>
      <use xlink:href="#DejaVuSans-72" x="269.572266"/>
      <use xlink:href="#DejaVuSans-64" x="308.935547"/>
     </g>
    </g>
   </g>
   <g id="PolyCollection_1"/>
   <g id="line2d_14">
    <path d="M 80.754545 184.68 
L 81.94214 153.174172 
L 83.129735 173.000814 
L 84.31733 123.521628 
L 85.504926 146.460389 
L 86.692521 137.648548 
L 87.880116 133.34753 
L 89.067711 144.187493 
L 90.255306 112.087216 
L 91.442901 114.639852 
L 92.630496 119.780093 
L 93.818091 111.178057 
L 95.005686 99.21913 
L 96.193281 103.240407 
L 97.380876 96.666494 
L 98.568471 103.170472 
L 99.756066 90.617095 
L 100.943661 103.520148 
L 102.131256 95.862239 
L 103.318851 101.037447 
L 104.506446 89.358261 
L 105.694041 81.350675 
L 106.881636 79.882035 
L 108.069231 90.162516 
L 109.256826 77.574172 
L 110.444421 81.420611 
L 111.632016 73.587863 
L 112.819611 79.847068 
L 114.007206 80.651323 
L 115.194801 79.882035 
L 116.382396 66.769177 
L 117.569991 73.063349 
L 118.757586 63.34235 
L 119.945181 72.329029 
L 121.132776 75.231341 
L 122.320371 74.986568 
L 123.507966 70.510712 
L 124.695561 70.720518 
L 125.883156 68.657428 
L 127.070751 63.307382 
L 128.258346 64.566216 
L 129.445941 60.020426 
L 130.633536 62.957706 
L 131.821131 63.307382 
L 133.008726 52.852063 
L 134.196321 52.537354 
L 135.383916 56.978242 
L 136.571511 58.307012 
L 137.759106 53.166772 
L 138.946701 52.712192 
L 140.134296 54.600444 
L 141.321891 54.425606 
L 142.509486 53.166772 
L 143.697081 52.74716 
L 144.884676 54.81025 
L 146.072271 48.236337 
L 147.259866 49.180463 
L 148.447461 53.446512 
L 150.822651 47.502017 
L 153.197841 50.788973 
L 154.385436 47.536984 
L 155.573031 50.754006 
L 156.760626 45.928474 
L 157.948221 46.383053 
L 159.135816 51.733099 
L 160.323411 43.550675 
L 161.511006 47.01247 
L 162.698601 46.27815 
L 163.886196 46.522923 
L 165.073791 45.998409 
L 166.261386 44.879445 
L 167.448981 49.355301 
L 168.636576 42.571582 
L 169.824171 45.159186 
L 171.011766 41.802294 
L 172.199362 46.068344 
L 173.386957 44.80951 
L 174.574552 41.732359 
L 175.762147 43.061129 
L 176.949742 43.585643 
L 178.137337 44.564736 
L 179.324932 40.963071 
L 180.512527 41.557521 
L 181.700122 42.921258 
L 182.887717 41.102942 
L 184.075312 39.914043 
L 186.450502 41.102942 
L 187.638097 40.123848 
L 188.825692 40.613395 
L 190.013287 40.718298 
L 191.200882 39.004884 
L 192.388477 40.368622 
L 193.576072 42.0121 
L 194.763667 39.599334 
L 195.951262 40.788233 
L 197.138857 38.934949 
L 198.326452 40.018945 
L 199.514047 40.788233 
L 200.701642 39.004884 
L 201.889237 38.550305 
L 203.076832 39.739204 
L 204.264427 39.564366 
L 205.452022 38.550305 
L 206.639617 39.459463 
L 207.827212 37.781018 
L 209.014807 38.48037 
L 210.202402 38.795079 
L 211.389997 37.606179 
L 212.577592 37.781018 
L 213.765187 38.270564 
L 214.952782 37.74605 
L 216.140377 38.3405 
L 217.327972 37.850953 
L 218.515567 38.095726 
L 219.703162 38.095726 
L 220.890757 38.585273 
L 222.078352 37.955856 
L 223.265947 36.976762 
L 224.453542 37.256503 
L 225.641137 36.697021 
L 226.828732 37.606179 
L 228.016327 37.1516 
L 229.203922 36.836892 
L 230.391517 36.662054 
L 232.766707 36.662054 
L 233.954302 37.256503 
L 235.141897 36.172507 
L 237.517087 36.067604 
L 238.704682 35.54309 
L 239.892277 35.787863 
L 241.079872 36.312377 
L 243.455062 36.172507 
L 244.642657 35.473154 
L 245.830252 36.137539 
L 247.017847 35.403219 
L 248.205442 35.857798 
L 249.393037 35.68296 
L 250.580632 36.172507 
L 251.768227 35.088511 
L 252.955822 35.158446 
L 254.143417 35.822831 
L 255.331012 35.857798 
L 256.518607 34.878705 
L 257.706202 35.333284 
L 258.893798 35.473154 
L 260.081393 34.703867 
L 261.268988 35.333284 
L 262.456583 34.529029 
L 263.644178 34.878705 
L 266.019368 34.983608 
L 267.206963 34.494061 
L 268.394558 34.389158 
L 269.582153 34.039482 
L 270.769748 35.333284 
L 273.144938 34.004514 
L 274.332533 34.389158 
L 275.520128 35.333284 
L 276.707723 34.459093 
L 277.895318 34.249288 
L 279.082913 34.494061 
L 280.270508 34.983608 
L 281.458103 34.913673 
L 283.833293 34.319223 
L 285.020888 34.598964 
L 286.208483 34.354191 
L 287.396078 33.829676 
L 288.583673 34.80877 
L 289.771268 33.934579 
L 290.958863 34.389158 
L 292.146458 33.864644 
L 293.334053 33.934579 
L 294.521648 34.424126 
L 295.709243 33.969547 
L 296.896838 34.668899 
L 298.084433 34.004514 
L 299.272028 34.144385 
L 300.459623 33.689806 
L 301.647218 34.179352 
L 302.834813 34.389158 
L 304.022408 34.354191 
L 305.210003 33.969547 
L 306.397598 34.07445 
L 307.585193 33.934579 
L 311.147978 34.424126 
L 313.523168 34.07445 
L 314.710763 33.689806 
L 317.085953 34.773802 
L 318.273548 34.354191 
L 319.461143 34.179352 
L 321.836333 34.144385 
L 323.023928 33.794709 
L 324.211523 34.354191 
L 326.586713 33.899611 
L 328.961903 34.563996 
L 330.149498 34.144385 
L 332.524688 33.794709 
L 333.712283 34.004514 
L 334.899878 33.48 
L 336.087473 33.724773 
L 337.275068 34.424126 
L 339.650258 33.689806 
L 340.837853 34.039482 
L 344.400638 33.899611 
L 345.588234 34.459093 
L 346.775829 34.07445 
L 347.963424 33.969547 
L 349.151019 34.354191 
L 350.338614 34.529029 
L 351.526209 34.179352 
L 352.713804 33.689806 
L 353.901399 33.794709 
L 355.088994 33.759741 
L 356.276589 34.179352 
L 357.464184 34.319223 
L 363.402159 34.039482 
L 364.589754 34.144385 
L 365.777349 33.794709 
L 369.340134 34.179352 
L 370.527729 33.864644 
L 371.715324 33.689806 
L 374.090514 34.529029 
L 375.278109 34.144385 
L 376.465704 34.039482 
L 377.653299 35.438187 
L 378.840894 34.598964 
L 380.028489 33.934579 
L 382.403679 33.829676 
L 383.591274 34.109417 
L 385.966464 34.249288 
L 387.154059 33.549935 
L 388.341654 34.109417 
L 389.529249 34.319223 
L 390.716844 33.864644 
L 391.904439 34.389158 
L 393.092034 34.459093 
L 394.279629 34.144385 
L 396.654819 33.934579 
L 397.842414 33.969547 
L 399.030009 33.794709 
L 400.217604 34.179352 
L 401.405199 33.549935 
L 402.592794 34.109417 
L 403.780389 33.724773 
L 404.967984 34.07445 
L 406.155579 33.934579 
L 407.343174 33.514968 
L 408.530769 34.424126 
L 409.718364 33.934579 
L 410.905959 34.07445 
L 412.093554 34.039482 
L 413.281149 34.494061 
L 414.468744 34.004514 
L 415.656339 33.794709 
L 418.031529 33.899611 
L 419.219124 34.459093 
L 420.406719 34.21432 
L 421.594314 34.179352 
L 422.781909 34.284255 
L 423.969504 34.249288 
L 425.157099 33.864644 
L 426.344694 34.389158 
L 427.532289 33.514968 
L 428.719884 34.80877 
L 431.095074 34.738834 
L 432.28267 34.354191 
L 433.470265 34.494061 
L 434.65786 34.039482 
L 435.845455 34.07445 
L 435.845455 34.07445 
" clip-path="url(#pf9b5200963)" style="fill: none; stroke: #4c72b0; stroke-width: 1.5; stroke-linecap: round"/>
   </g>
   <g id="patch_3">
    <path d="M 63 192.24 
L 63 25.92 
" style="fill: none; stroke: #cccccc; stroke-width: 1.25; stroke-linejoin: miter; stroke-linecap: square"/>
   </g>
   <g id="patch_4">
    <path d="M 453.6 192.24 
L 453.6 25.92 
" style="fill: none; stroke: #cccccc; stroke-width: 1.25; stroke-linejoin: miter; stroke-linecap: square"/>
   </g>
   <g id="patch_5">
    <path d="M 63 192.24 
L 453.6 192.24 
" style="fill: none; stroke: #cccccc; stroke-width: 1.25; stroke-linejoin: miter; stroke-linecap: square"/>
   </g>
   <g id="patch_6">
    <path d="M 63 25.92 
L 453.6 25.92 
" style="fill: none; stroke: #cccccc; stroke-width: 1.25; stroke-linejoin: miter; stroke-linecap: square"/>
   </g>
   <g id="text_16">
    <!-- SARSA estocástico, mapa 1 : Reward por Episodio -->
    <g style="fill: #262626" transform="translate(108.542813 19.92) scale(0.12 -0.12)">
     <defs>
      <path id="DejaVuSans-53" d="M 3425 4513 
L 3425 3897 
Q 3066 4069 2747 4153 
Q 2428 4238 2131 4238 
Q 1616 4238 1336 4038 
Q 1056 3838 1056 3469 
Q 1056 3159 1242 3001 
Q 1428 2844 1947 2747 
L 2328 2669 
Q 3034 2534 3370 2195 
Q 3706 1856 3706 1288 
Q 3706 609 3251 259 
Q 2797 -91 1919 -91 
Q 1588 -91 1214 -16 
Q 841 59 441 206 
L 441 856 
Q 825 641 1194 531 
Q 1563 422 1919 422 
Q 2459 422 2753 634 
Q 3047 847 3047 1241 
Q 3047 1584 2836 1778 
Q 2625 1972 2144 2069 
L 1759 2144 
Q 1053 2284 737 2584 
Q 422 2884 422 3419 
Q 422 4038 858 4394 
Q 1294 4750 2059 4750 
Q 2388 4750 2728 4690 
Q 3069 4631 3425 4513 
z
" transform="scale(0.015625)"/>
      <path id="DejaVuSans-41" d="M 2188 4044 
L 1331 1722 
L 3047 1722 
L 2188 4044 
z
M 1831 4666 
L 2547 4666 
L 4325 0 
L 3669 0 
L 3244 1197 
L 1141 1197 
L 716 0 
L 50 0 
L 1831 4666 
z
" transform="scale(0.015625)"/>
      <path id="DejaVuSans-20" transform="scale(0.015625)"/>
      <path id="DejaVuSans-74" d="M 1172 4494 
L 1172 3500 
L 2356 3500 
L 2356 3053 
L 1172 3053 
L 1172 1153 
Q 1172 725 1289 603 
Q 1406 481 1766 481 
L 2356 481 
L 2356 0 
L 1766 0 
Q 1100 0 847 248 
Q 594 497 594 1153 
L 594 3053 
L 172 3053 
L 172 3500 
L 594 3500 
L 594 4494 
L 1172 4494 
z
" transform="scale(0.015625)"/>
      <path id="DejaVuSans-63" d="M 3122 3366 
L 3122 2828 
Q 2878 2963 2633 3030 
Q 2388 3097 2138 3097 
Q 1578 3097 1268 2742 
Q 959 2388 959 1747 
Q 959 1106 1268 751 
Q 1578 397 2138 397 
Q 2388 397 2633 464 
Q 2878 531 3122 666 
L 3122 134 
Q 2881 22 2623 -34 
Q 2366 -91 2075 -91 
Q 1284 -91 818 406 
Q 353 903 353 1747 
Q 353 2603 823 3093 
Q 1294 3584 2113 3584 
Q 2378 3584 2631 3529 
Q 2884 3475 3122 3366 
z
" transform="scale(0.015625)"/>
      <path id="DejaVuSans-e1" d="M 2194 1759 
Q 1497 1759 1228 1600 
Q 959 1441 959 1056 
Q 959 750 1161 570 
Q 1363 391 1709 391 
Q 2188 391 2477 730 
Q 2766 1069 2766 1631 
L 2766 1759 
L 2194 1759 
z
M 3341 1997 
L 3341 0 
L 2766 0 
L 2766 531 
Q 2569 213 2275 61 
Q 1981 -91 1556 -91 
Q 1019 -91 701 211 
Q 384 513 384 1019 
Q 384 1609 779 1909 
Q 1175 2209 1959 2209 
L 2766 2209 
L 2766 2266 
Q 2766 2663 2505 2880 
Q 2244 3097 1772 3097 
Q 1472 3097 1187 3025 
Q 903 2953 641 2809 
L 641 3341 
Q 956 3463 1253 3523 
Q 1550 3584 1831 3584 
Q 2591 3584 2966 3190 
Q 3341 2797 3341 1997 
z
M 2290 5119 
L 2912 5119 
L 1894 3944 
L 1415 3944 
L 2290 5119 
z
" transform="scale(0.015625)"/>
      <path id="DejaVuSans-2c" d="M 750 794 
L 1409 794 
L 1409 256 
L 897 -744 
L 494 -744 
L 750 256 
L 750 794 
z
" transform="scale(0.015625)"/>
      <path id="DejaVuSans-6d" d="M 3328 2828 
Q 3544 3216 3844 3400 
Q 4144 3584 4550 3584 
Q 5097 3584 5394 3201 
Q 5691 2819 5691 2113 
L 5691 0 
L 5113 0 
L 5113 2094 
Q 5113 2597 4934 2840 
Q 4756 3084 4391 3084 
Q 3944 3084 3684 2787 
Q 3425 2491 3425 1978 
L 3425 0 
L 2847 0 
L 2847 2094 
Q 2847 2600 2669 2842 
Q 2491 3084 2119 3084 
Q 1678 3084 1418 2786 
Q 1159 2488 1159 1978 
L 1159 0 
L 581 0 
L 581 3500 
L 1159 3500 
L 1159 2956 
Q 1356 3278 1631 3431 
Q 1906 3584 2284 3584 
Q 2666 3584 2933 3390 
Q 3200 3197 3328 2828 
z
" transform="scale(0.015625)"/>
      <path id="DejaVuSans-3a" d="M 750 794 
L 1409 794 
L 1409 0 
L 750 0 
L 750 794 
z
M 750 3309 
L 1409 3309 
L 1409 2516 
L 750 2516 
L 750 3309 
z
" transform="scale(0.015625)"/>
     </defs>
     <use xlink:href="#DejaVuSans-53"/>
     <use xlink:href="#DejaVuSans-41" x="65.351562"/>
     <use xlink:href="#DejaVuSans-52" x="133.759766"/>
     <use xlink:href="#DejaVuSans-53" x="203.242188"/>
     <use xlink:href="#DejaVuSans-41" x="268.59375"/>
     <use xlink:href="#DejaVuSans-20" x="337.001953"/>
     <use xlink:href="#DejaVuSans-65" x="368.789062"/>
     <use xlink:href="#DejaVuSans-73" x="430.3125"/>
     <use xlink:href="#DejaVuSans-74" x="482.412109"/>
     <use xlink:href="#DejaVuSans-6f" x="521.621094"/>
     <use xlink:href="#DejaVuSans-63" x="582.802734"/>
     <use xlink:href="#DejaVuSans-e1" x="637.783203"/>
     <use xlink:href="#DejaVuSans-73" x="699.0625"/>
     <use xlink:href="#DejaVuSans-74" x="751.162109"/>
     <use xlink:href="#DejaVuSans-69" x="790.371094"/>
     <use xlink:href="#DejaVuSans-63" x="818.154297"/>
     <use xlink:href="#DejaVuSans-6f" x="873.134766"/>
     <use xlink:href="#DejaVuSans-2c" x="934.316406"/>
     <use xlink:href="#DejaVuSans-20" x="966.103516"/>
     <use xlink:href="#DejaVuSans-6d" x="997.890625"/>
     <use xlink:href="#DejaVuSans-61" x="1095.302734"/>
     <use xlink:href="#DejaVuSans-70" x="1156.582031"/>
     <use xlink:href="#DejaVuSans-61" x="1220.058594"/>
     <use xlink:href="#DejaVuSans-20" x="1281.337891"/>
     <use xlink:href="#DejaVuSans-31" x="1313.125"/>
     <use xlink:href="#DejaVuSans-20" x="1376.748047"/>
     <use xlink:href="#DejaVuSans-3a" x="1408.535156"/>
     <use xlink:href="#DejaVuSans-20" x="1442.226562"/>
     <use xlink:href="#DejaVuSans-52" x="1474.013672"/>
     <use xlink:href="#DejaVuSans-65" x="1538.996094"/>
     <use xlink:href="#DejaVuSans-77" x="1600.519531"/>
     <use xlink:href="#DejaVuSans-61" x="1682.306641"/>
     <use xlink:href="#DejaVuSans-72" x="1743.585938"/>
     <use xlink:href="#DejaVuSans-64" x="1782.949219"/>
     <use xlink:href="#DejaVuSans-20" x="1846.425781"/>
     <use xlink:href="#DejaVuSans-70" x="1878.212891"/>
     <use xlink:href="#DejaVuSans-6f" x="1941.689453"/>
     <use xlink:href="#DejaVuSans-72" x="2002.871094"/>
     <use xlink:href="#DejaVuSans-20" x="2043.984375"/>
     <use xlink:href="#DejaVuSans-45" x="2075.771484"/>
     <use xlink:href="#DejaVuSans-70" x="2138.955078"/>
     <use xlink:href="#DejaVuSans-69" x="2202.431641"/>
     <use xlink:href="#DejaVuSans-73" x="2230.214844"/>
     <use xlink:href="#DejaVuSans-6f" x="2282.314453"/>
     <use xlink:href="#DejaVuSans-64" x="2343.496094"/>
     <use xlink:href="#DejaVuSans-69" x="2406.972656"/>
     <use xlink:href="#DejaVuSans-6f" x="2434.755859"/>
    </g>
   </g>
  </g>
 </g>
 <defs>
  <clipPath id="pf9b5200963">
   <rect x="63" y="25.92" width="390.6" height="166.32"/>
  </clipPath>
 </defs>
</svg>
